<?xml version="1.0" encoding="utf-8"?>
<!-- Generator: Adobe Illustrator 24.1.3, SVG Export Plug-In . SVG Version: 6.00 Build 0)  -->
<svg version="1.1" id="Layer_1" xmlns="http://www.w3.org/2000/svg" xmlns:xlink="http://www.w3.org/1999/xlink" x="0px" y="0px"
	 viewBox="0 0 170 35" style="enable-background:new 0 0 170 35;" xml:space="preserve">
<style type="text/css">
	.st0{fill:#1E94D2;}
	.st1{fill:#F37124;}
</style>
<g>
	<path class="st0" d="M17.6,12.1l-2.4,2.3c-1.5-1.6-3.2-2.4-5.2-2.4c-1.7,0-3.2,0.6-4.3,1.7C4.5,15,4,16.4,4,18
		c0,1.7,0.6,3.1,1.8,4.3c1.2,1.2,2.7,1.8,4.5,1.8c1.2,0,2.1-0.2,2.9-0.7c0.8-0.5,1.4-1.2,1.9-2.3H10v-3.1h8.8l0,0.7
		c0,1.5-0.4,3-1.2,4.4c-0.8,1.4-1.8,2.4-3.1,3.2s-2.7,1.1-4.5,1.1c-1.8,0-3.4-0.4-4.9-1.2s-2.6-1.9-3.4-3.4c-0.8-1.5-1.2-3-1.2-4.7
		c0-2.3,0.8-4.3,2.3-6.1c1.8-2,4.2-3.1,7.1-3.1c1.5,0,3,0.3,4.3,0.8C15.4,10.2,16.5,11,17.6,12.1z"/>
	<path class="st0" d="M31.2,13.9h3.3v13h-3.3v-1.4c-0.6,0.6-1.3,1-1.9,1.3c-0.6,0.3-1.3,0.4-2.1,0.4c-1.7,0-3.1-0.7-4.4-2
		c-1.2-1.3-1.8-2.9-1.8-4.9c0-2,0.6-3.6,1.8-4.9c1.2-1.3,2.6-1.9,4.3-1.9c0.8,0,1.5,0.1,2.2,0.4c0.7,0.3,1.3,0.7,1.9,1.3V13.9z
		 M27.7,16.5c-1,0-1.8,0.4-2.5,1.1c-0.7,0.7-1,1.6-1,2.7c0,1.1,0.3,2,1,2.8c0.7,0.7,1.5,1.1,2.5,1.1c1,0,1.9-0.4,2.5-1.1
		c0.7-0.7,1-1.6,1-2.8c0-1.1-0.3-2-1-2.7C29.6,16.9,28.8,16.5,27.7,16.5z"/>
	<path class="st0" d="M47.3,8.8h3.3v18h-3.3v-1.4c-0.6,0.6-1.3,1-1.9,1.3c-0.6,0.3-1.3,0.4-2.1,0.4c-1.7,0-3.1-0.7-4.4-2
		s-1.8-2.9-1.8-4.9c0-2,0.6-3.6,1.8-4.9c1.2-1.3,2.6-1.9,4.3-1.9c0.8,0,1.5,0.1,2.2,0.4c0.7,0.3,1.3,0.7,1.9,1.3V8.8z M43.9,16.5
		c-1,0-1.8,0.4-2.5,1.1c-0.7,0.7-1,1.6-1,2.7c0,1.1,0.3,2,1,2.8c0.7,0.7,1.5,1.1,2.5,1.1c1,0,1.9-0.4,2.5-1.1c0.7-0.7,1-1.6,1-2.8
		c0-1.1-0.3-2-1-2.7C45.7,16.9,44.9,16.5,43.9,16.5z"/>
	<path class="st0" d="M63.4,13.9h3.2V25c0,2.2-0.4,3.8-1.3,4.8c-1.2,1.4-3,2.1-5.4,2.1c-1.3,0-2.3-0.2-3.2-0.5
		c-0.9-0.3-1.6-0.8-2.2-1.4c-0.6-0.6-1-1.4-1.3-2.2h3.6c0.3,0.4,0.7,0.6,1.2,0.8c0.5,0.2,1.1,0.3,1.8,0.3c0.9,0,1.6-0.1,2.1-0.4
		c0.5-0.3,0.9-0.6,1.1-1.1c0.2-0.4,0.3-1.2,0.3-2.2c-0.6,0.6-1.2,1-1.8,1.2c-0.6,0.3-1.3,0.4-2.1,0.4c-1.7,0-3.2-0.6-4.4-1.9
		c-1.2-1.3-1.8-2.8-1.8-4.8c0-2.1,0.6-3.7,1.9-5c1.2-1.1,2.5-1.7,4.1-1.7c0.7,0,1.5,0.1,2.1,0.4c0.7,0.3,1.3,0.7,2,1.4V13.9z
		 M60.1,16.6c-1,0-1.9,0.3-2.5,1c-0.7,0.7-1,1.6-1,2.6c0,1.1,0.3,2,1,2.7c0.7,0.7,1.5,1,2.6,1c1,0,1.8-0.3,2.5-1
		c0.7-0.7,1-1.6,1-2.7c0-1.1-0.3-2-1-2.6C62,16.9,61.1,16.6,60.1,16.6z"/>
	<path class="st0" d="M83,21.3H72.5c0.2,0.9,0.6,1.7,1.2,2.2c0.7,0.5,1.5,0.8,2.5,0.8c1.2,0,2.3-0.4,3.1-1.3l2.7,1.3
		c-0.7,1-1.5,1.7-2.5,2.2c-1,0.5-2.1,0.7-3.4,0.7c-2,0-3.7-0.6-5-1.9c-1.3-1.3-1.9-2.9-1.9-4.8c0-2,0.6-3.6,1.9-4.9
		c1.3-1.3,2.9-2,4.8-2c2,0,3.7,0.7,5,2c1.3,1.3,1.9,3,1.9,5.2L83,21.3z M79.7,18.7c-0.2-0.7-0.6-1.3-1.3-1.8
		c-0.6-0.5-1.4-0.7-2.2-0.7c-0.9,0-1.7,0.3-2.4,0.8c-0.4,0.3-0.8,0.9-1.2,1.7H79.7z"/>
	<path class="st0" d="M86,9.1h3.3v4.8h1.9v2.8h-1.9v10.2H86V16.7h-1.7v-2.8H86V9.1z"/>
	<path class="st0" d="M100.9,15.7l-2,2c-0.8-0.8-1.6-1.2-2.2-1.2c-0.4,0-0.7,0.1-0.9,0.2c-0.2,0.2-0.3,0.3-0.3,0.6
		c0,0.2,0.1,0.3,0.2,0.5s0.5,0.3,1,0.6l1.2,0.6c1.3,0.6,2.1,1.3,2.6,1.9c0.5,0.6,0.7,1.4,0.7,2.3c0,1.2-0.4,2.1-1.3,2.9
		c-0.8,0.8-2,1.2-3.4,1.2c-1.9,0-3.4-0.7-4.5-2.2l2-2.2c0.4,0.4,0.8,0.8,1.3,1.1c0.5,0.3,1,0.4,1.4,0.4c0.4,0,0.8-0.1,1-0.3
		c0.3-0.2,0.4-0.4,0.4-0.7c0-0.5-0.5-1-1.4-1.5l-1.1-0.5c-2.1-1.1-3.1-2.4-3.1-4c0-1,0.4-1.9,1.2-2.6c0.8-0.7,1.8-1.1,3-1.1
		c0.8,0,1.6,0.2,2.4,0.6C99.7,14.4,100.4,15,100.9,15.7z"/>
	<path class="st1" d="M110.9,9.3h4c2.6,0,4.4,0.3,5.7,0.9c1.2,0.6,2.3,1.7,3.1,3.1c0.8,1.4,1.2,3.1,1.2,5c0,1.4-0.2,2.6-0.7,3.7
		c-0.4,1.1-1.1,2.1-1.9,2.8c-0.8,0.7-1.6,1.3-2.6,1.6c-0.9,0.3-2.5,0.4-4.8,0.4h-4V9.3z M114.2,12.5v11.1h1.6c1.5,0,2.6-0.2,3.3-0.5
		c0.7-0.4,1.3-0.9,1.7-1.8c0.4-0.8,0.7-1.8,0.7-3.1c0-1.9-0.5-3.3-1.6-4.3c-0.9-0.9-2.4-1.4-4.5-1.4H114.2z"/>
	<path class="st1" d="M140.6,21.3h-10.5c0.2,0.9,0.6,1.7,1.2,2.2c0.7,0.5,1.5,0.8,2.5,0.8c1.2,0,2.3-0.4,3.1-1.3l2.7,1.3
		c-0.7,1-1.5,1.7-2.5,2.2c-1,0.5-2.1,0.7-3.4,0.7c-2,0-3.7-0.6-5-1.9c-1.3-1.3-1.9-2.9-1.9-4.8c0-2,0.6-3.6,1.9-4.9
		c1.3-1.3,2.9-2,4.8-2c2,0,3.7,0.7,5,2c1.3,1.3,1.9,3,1.9,5.2L140.6,21.3z M137.4,18.7c-0.2-0.7-0.6-1.3-1.3-1.8
		c-0.6-0.5-1.4-0.7-2.2-0.7c-0.9,0-1.7,0.3-2.4,0.8c-0.4,0.3-0.8,0.9-1.2,1.7H137.4z"/>
	<path class="st1" d="M152.9,13.9h3.3v13h-3.3v-1.4c-0.6,0.6-1.3,1-1.9,1.3c-0.6,0.3-1.3,0.4-2.1,0.4c-1.7,0-3.1-0.7-4.4-2
		c-1.2-1.3-1.8-2.9-1.8-4.9c0-2,0.6-3.6,1.8-4.9c1.2-1.3,2.6-1.9,4.3-1.9c0.8,0,1.5,0.1,2.2,0.4c0.7,0.3,1.3,0.7,1.9,1.3V13.9z
		 M149.4,16.5c-1,0-1.8,0.4-2.5,1.1c-0.7,0.7-1,1.6-1,2.7c0,1.1,0.3,2,1,2.8c0.7,0.7,1.5,1.1,2.5,1.1c1,0,1.9-0.4,2.5-1.1
		c0.7-0.7,1-1.6,1-2.8c0-1.1-0.3-2-1-2.7C151.3,16.9,150.5,16.5,149.4,16.5z"/>
	<path class="st1" d="M159.1,8.8h3.3v18h-3.3V8.8z"/>
	<g>
		<g>
			<path class="st1" d="M21.9,10.9V3.1h0.7v3.2c0.3-0.4,0.6-0.7,1-0.8c0.4-0.2,0.8-0.3,1.2-0.3c0.8,0,1.5,0.3,2,0.9
				c0.6,0.6,0.8,1.3,0.8,2.1c0,0.8-0.3,1.5-0.9,2.1c-0.6,0.6-1.3,0.9-2.1,0.9c-0.5,0-0.9-0.1-1.2-0.3c-0.4-0.2-0.7-0.5-1-0.9v1H21.9
				z M24.8,10.4c0.4,0,0.8-0.1,1.1-0.3c0.3-0.2,0.6-0.5,0.8-0.8s0.3-0.7,0.3-1.1c0-0.4-0.1-0.8-0.3-1.1s-0.5-0.6-0.8-0.8
				c-0.3-0.2-0.7-0.3-1.1-0.3c-0.4,0-0.8,0.1-1.1,0.3c-0.4,0.2-0.6,0.5-0.8,0.8c-0.2,0.3-0.3,0.7-0.3,1.2c0,0.7,0.2,1.2,0.6,1.6
				S24.2,10.4,24.8,10.4z"/>
			<path class="st1" d="M33.9,9l0.6,0.3c-0.2,0.4-0.4,0.7-0.7,1c-0.3,0.2-0.6,0.4-0.9,0.6c-0.3,0.1-0.7,0.2-1.1,0.2
				c-0.9,0-1.6-0.3-2.2-0.9c-0.5-0.6-0.8-1.3-0.8-2c0-0.7,0.2-1.4,0.7-1.9c0.6-0.7,1.3-1.1,2.2-1.1c1,0,1.7,0.4,2.3,1.1
				c0.4,0.5,0.6,1.2,0.6,1.9h-5.1c0,0.7,0.2,1.2,0.6,1.6c0.4,0.4,0.9,0.6,1.5,0.6c0.3,0,0.6,0,0.8-0.1c0.3-0.1,0.5-0.2,0.7-0.4
				C33.5,9.7,33.7,9.4,33.9,9z M33.9,7.5c-0.1-0.4-0.2-0.7-0.4-0.9C33.3,6.4,33,6.2,32.7,6c-0.3-0.1-0.6-0.2-1-0.2
				c-0.6,0-1,0.2-1.4,0.5C30,6.6,29.8,7,29.7,7.5H33.9z"/>
			<path class="st1" d="M38.9,5.9l-0.5,0.5C38,6,37.6,5.8,37.3,5.8c-0.2,0-0.4,0.1-0.6,0.2s-0.3,0.3-0.3,0.5c0,0.2,0.1,0.4,0.2,0.5
				c0.1,0.2,0.4,0.4,0.9,0.6C38,8,38.4,8.2,38.6,8.5c0.2,0.3,0.3,0.6,0.3,0.9c0,0.5-0.2,0.9-0.5,1.2s-0.7,0.5-1.2,0.5
				c-0.3,0-0.6-0.1-0.9-0.2c-0.3-0.1-0.5-0.3-0.7-0.6L36,9.7c0.4,0.4,0.8,0.6,1.2,0.6c0.3,0,0.5-0.1,0.7-0.3
				c0.2-0.2,0.3-0.4,0.3-0.7c0-0.2-0.1-0.4-0.2-0.6c-0.1-0.2-0.4-0.4-0.9-0.6c-0.5-0.3-0.9-0.5-1-0.8c-0.2-0.3-0.3-0.5-0.3-0.9
				c0-0.4,0.1-0.8,0.4-1.1c0.3-0.3,0.7-0.4,1.1-0.4C37.8,5.1,38.3,5.4,38.9,5.9z"/>
			<path class="st1" d="M40.8,3.2h0.7v2.1h1.2v0.6h-1.2v5h-0.7v-5h-1V5.3h1V3.2z"/>
		</g>
	</g>
</g>
</svg>
