<?xml version="1.0" encoding="utf-8"?>
<!-- Generator: Adobe Illustrator 24.1.3, SVG Export Plug-In . SVG Version: 6.00 Build 0)  -->
<svg version="1.1" id="Layer_1" xmlns="http://www.w3.org/2000/svg" xmlns:xlink="http://www.w3.org/1999/xlink" x="0px" y="0px"
	 viewBox="0 0 200 45" style="enable-background:new 0 0 200 45;" xml:space="preserve">
<style type="text/css">
	.st0{fill:url(#SVGID_1_);}
	.st1{fill:url(#SVGID_2_);}
	.st2{fill:url(#SVGID_3_);}
	.st3{fill:url(#SVGID_4_);}
	.st4{fill:#B11F87;}
	.st5{fill:#E00786;}
	.st6{fill:#21BBEE;}
	.st7{fill:#2BACE2;}
	.st8{fill:#127DC2;}
	.st9{fill:url(#SVGID_5_);}
	.st10{fill:#010101;}
	.st11{fill:#EC008C;}
</style>
<g>
	<linearGradient id="SVGID_1_" gradientUnits="userSpaceOnUse" x1="43.4009" y1="23.3081" x2="119.1111" y2="23.3081">
		<stop  offset="0" style="stop-color:#127DC2"/>
		<stop  offset="9.881198e-02" style="stop-color:#327CC0"/>
		<stop  offset="0.2636" style="stop-color:#5B76BA"/>
		<stop  offset="0.474" style="stop-color:#846CB0"/>
		<stop  offset="0.722" style="stop-color:#B258A1"/>
		<stop  offset="1" style="stop-color:#E7198D"/>
	</linearGradient>
	<path class="st0" d="M117.7,29.2c-1.9,0-5.6,0-5.6,0s-0.3,0-0.6,0c0-1,0-2,0-2.9c3.2,0,7.1,0,7.4,0c0.5,0,1.1-0.2,1.1-0.9
		c0,0,0-3.7,0-4.2c0-0.5-0.1-0.9-1.1-0.9c-0.9,0-1.2,0-1.2,0s-3.7,0-5.6,0c-0.2,0-0.4,0-0.6,0c0-0.8,0-1.9,0-2.9c0.4,0,0.7,0,0.7,0
		s3.7,0,5.6,0c1.9,0,5.5-0.9,4.7-6c0,0-14.1,0-14.6,0l-0.3,0c-0.5,0-1.2,0-1.8,0.1c0,0,0,22.1,0,22.6s0.2,1.1,0.9,1.1
		c0,0,3.6,0,4.1,0c0,0,0,0,0,0c4.3,0,11.8,0,11.8,0C123.2,30.1,119.6,29.2,117.7,29.2z"/>
	<linearGradient id="SVGID_2_" gradientUnits="userSpaceOnUse" x1="43.4009" y1="23.3572" x2="119.1111" y2="23.3572">
		<stop  offset="0" style="stop-color:#127DC2"/>
		<stop  offset="9.881198e-02" style="stop-color:#327CC0"/>
		<stop  offset="0.2636" style="stop-color:#5B76BA"/>
		<stop  offset="0.474" style="stop-color:#846CB0"/>
		<stop  offset="0.722" style="stop-color:#B258A1"/>
		<stop  offset="1" style="stop-color:#E7198D"/>
	</linearGradient>
	<path class="st1" d="M74.7,11.8l14.5,23.5l13-23.5c0,0-4.8-0.3-5.7-0.3c-0.9,0-1.1,0.2-2.7,3.6S89,23.4,89,23.4s-6.5-9.8-6.9-10.5
		c-0.4-0.7-1-1.1-2.6-1.1S74.7,11.8,74.7,11.8z"/>
	<linearGradient id="SVGID_3_" gradientUnits="userSpaceOnUse" x1="42.0263" y1="23.5505" x2="117.7364" y2="23.5505">
		<stop  offset="0" style="stop-color:#127DC2"/>
		<stop  offset="9.881198e-02" style="stop-color:#327CC0"/>
		<stop  offset="0.2636" style="stop-color:#5B76BA"/>
		<stop  offset="0.474" style="stop-color:#846CB0"/>
		<stop  offset="0.722" style="stop-color:#B258A1"/>
		<stop  offset="1" style="stop-color:#E7198D"/>
	</linearGradient>
	<path class="st2" d="M70.8,17c0,0,0,1.3,0-0.5s-1-5.2-6.6-4.5c0,0,0,21.6,0,22.1s0.3,1.1,1.1,1.1c0,0,4.1,0,4.6,0c0.5,0,1-0.1,1-1
		S70.8,17,70.8,17z"/>
	<linearGradient id="SVGID_4_" gradientUnits="userSpaceOnUse" x1="40.8452" y1="23.3572" x2="116.5554" y2="23.3572">
		<stop  offset="0" style="stop-color:#127DC2"/>
		<stop  offset="9.881198e-02" style="stop-color:#327CC0"/>
		<stop  offset="0.2636" style="stop-color:#5B76BA"/>
		<stop  offset="0.474" style="stop-color:#846CB0"/>
		<stop  offset="0.722" style="stop-color:#B258A1"/>
		<stop  offset="1" style="stop-color:#E7198D"/>
	</linearGradient>
	<path class="st3" d="M58.7,35.3c0,0-15,0-15.5,0s-1.1-0.3-1.1-1.1c0-0.8,0-21.5,0-21.7c0-0.3-0.1-1,1-1s3.9,0,4.6,0s1,1.1,1,1.6
		c0,0.5,0.1,15.6,0.1,15.6s3.6,0,5.3,0S59.4,29.6,58.7,35.3z"/>
</g>
<g>
	<g>
		<circle class="st4" cx="10.2" cy="21.7" r="2.8"/>
		<path class="st5" d="M10.2,18.9c-0.3,0-0.6,0-0.9,0.1c-0.1,0.3-0.1,0.6-0.1,0.9c0,1.5,1.2,2.8,2.8,2.8c0.3,0,0.6,0,0.9-0.1
			c0.1-0.3,0.1-0.6,0.1-0.9C12.9,20.2,11.7,18.9,10.2,18.9z"/>
	</g>
	<path class="st6" d="M10.2,16.3c-3.1,0-5.5,2.5-5.5,5.5c0,0,0,0,0,0c0.3-0.2,0.6-0.4,0.8-0.6c0.3-2.3,2.3-4.1,4.7-4.1
		c2.3,0,4.3,1.7,4.7,3.9c0.3,0.5,0.6,0.7,0.8,0.8c0,0,0,0,0,0C15.7,18.7,13.2,16.3,10.2,16.3z"/>
	<path class="st7" d="M5.7,26.2c-2.3-2.3-2.4-5.9-0.4-8.4c0.1-0.5,0-0.8-0.1-1c0,0,0,0,0,0c-2.7,2.7-2.7,7.1,0,9.8
		c2.7,2.7,7.1,2.7,9.8,0c0,0,0,0,0,0c-0.3-0.1-0.6-0.2-0.9-0.2C11.7,28.6,8,28.5,5.7,26.2z"/>
	<path class="st8" d="M4.6,27.2c-3.1-3.1-3.1-8,0-11.1c3-3,7.9-3.1,11-0.1c0.4,0,0.6-0.1,0.7-0.3c0,0-0.1-0.1-0.1-0.1
		c-3.4-3.4-8.8-3.4-12.1,0c-3.4,3.4-3.4,8.8,0,12.1c3.4,3.4,8.8,3.4,12.1,0c0,0,0,0,0,0c-0.3-0.1-0.6-0.2-0.9-0.2
		C12.3,30.3,7.6,30.2,4.6,27.2z"/>
	<linearGradient id="SVGID_5_" gradientUnits="userSpaceOnUse" x1="18.2569" y1="39.483" x2="18.2569" y2="15.8577">
		<stop  offset="0" style="stop-color:#127DC2"/>
		<stop  offset="9.881198e-02" style="stop-color:#327CC0"/>
		<stop  offset="0.2636" style="stop-color:#5B76BA"/>
		<stop  offset="0.474" style="stop-color:#846CB0"/>
		<stop  offset="0.722" style="stop-color:#B258A1"/>
		<stop  offset="1" style="stop-color:#E7198D"/>
	</linearGradient>
	<path class="st9" d="M24.5,9H12c-1.3,0-2.4,1.1-2.4,2.4v0.5c0.2,0,0.4,0,0.6,0c0.2,0,0.4,0,0.6,0v-0.1c0-0.2,0.2-0.4,0.4-0.4h14.2
		c0.2,0,0.4,0.2,0.4,0.4v24.9c0,0.2-0.2,0.4-0.4,0.4H11.1c-0.2,0-0.4-0.2-0.4-0.4v-5c-0.2,0-0.4,0-0.6,0c-0.2,0-0.4,0-0.6,0v5
		c0,1.3,1.1,2.4,2.4,2.4h12.5c1.3,0,2.4-1.1,2.4-2.4V11.4C26.9,10.1,25.8,9,24.5,9z M20.3,10.3h-4.1c-0.1,0-0.2-0.1-0.2-0.2
		s0.1-0.2,0.2-0.2h4.1c0.1,0,0.2,0.1,0.2,0.2S20.4,10.3,20.3,10.3z"/>
	<circle class="st8" cx="10.2" cy="21.8" r="0.1"/>
	<circle class="st10" cx="10.2" cy="21.7" r="0"/>
</g>
<g>
	<path class="st11" d="M154.4,15v20.1h-3.7V19.5c0-1-0.3-1.8-0.9-2.7c-0.6-0.9-1.4-1.4-2.3-1.4c-0.7,0-1.3,0.3-1.8,0.8
		c-0.5,0.5-0.8,1.1-0.8,1.8c0,2,0.7,3,2,3c0.5,0,1.4-0.5,2.7-1.5v4.2c-1,1-2.1,1.5-3.3,1.5c-1.2,0-2.3-0.8-3.5-2.5
		c-1.1,1.7-2.4,2.6-4.1,2.6c-1.4,0-2.5-0.6-3.3-1.9v-4.4c1.3,1.4,2.2,2.1,2.8,2.1c1.4,0,2.1-1.1,2.1-3.4c0-1.9-1.5-2.9-4.5-2.9h-0.5
		c-0.3,0-0.5,0-0.6,0c-0.4,0-0.9,0-1.5,0v-3.4h5.1c1.6,0,3,1,4.3,2.9c1-2,2.4-2.9,4.2-2.9c1.3,0,2.5,0.6,3.7,1.9v-1.9h6.4V15H154.4z
		"/>
	<path class="st11" d="M181.3,9c-4.6-2.9-8.4-4.4-11.3-4.4c-2.4,0-4.4,0.6-5.9,1.7c-1.7,1.2-2.6,3-2.7,5.3h2.7V15h-2.7v20h-3.8V15
		h-2.8v-3.4h2.8c0.1-3.4,1.4-6.1,3.8-7.9c2.2-1.7,5.1-2.6,8.6-2.6c2.2,0,4.5,0.5,6.9,1.5c1.7,0.7,3.8,2,6.5,3.7L181.3,9z"/>
	<path class="st11" d="M182.8,15v20h-3.7c0-0.2,0-1.3,0.1-3.5c0-1.4,0.1-2.8,0.1-4.1c0-3.2-0.2-5.2-0.7-6.1c-3.2,1.5-7,3.4-11.4,5.7
		l-1.7-2.7c0.7-1.3,1-2.4,1-3.2c0-1-0.2-1.6-0.7-2c-0.4-0.3-1-0.5-2.1-0.6l-1.1-2.8c2.2-2.8,5.3-4.1,9.1-4.1c1.6,0,3,0.4,4.2,1.1
		c1,0.6,2,1.6,3.1,3v-4.2h6.5V15H182.8z M172,15.4c-1.2,0-2.6,0.4-4.1,1.3c1.3,0.9,2,2,2,3.4c0,0.4-0.1,0.8-0.2,1.2l6.6-3.2
		c-0.4-0.8-1-1.4-1.8-2C173.7,15.7,172.9,15.4,172,15.4z"/>
	<path class="st11" d="M191.7,24.4c-1.8,0-3.3-0.6-4.4-1.7c-1.1-1.2-1.6-2.7-1.6-4.5c0-1.7,0.6-3.1,1.7-4.2c1.1-1.2,2.5-1.7,4.2-1.7
		c1.7,0,3,0.7,4.1,2c1,1.3,1.5,2.7,1.5,4.4c0,1.8-0.5,3.2-1.4,4.2S193.4,24.4,191.7,24.4z M192.6,34.3c-2.3-2-4.5-3.5-6.7-4.6l0-5.3
		c6.7,4.9,11.1,8.8,13.3,11.8v3.9C198.1,39.1,195.9,37.2,192.6,34.3z M191.6,15.9c-0.7,0-1.3,0.2-1.8,0.6s-0.7,1-0.7,1.7
		c0,0.7,0.3,1.3,0.8,1.8c0.5,0.6,1.1,0.8,1.8,0.8c0.6,0,1.1-0.2,1.6-0.7c0.5-0.5,0.7-1,0.7-1.6c0-0.7-0.2-1.3-0.6-1.9
		C192.7,16.2,192.2,15.9,191.6,15.9z"/>
</g>
</svg>
